<?xml version="1.0" encoding="UTF-8" standalone="no"?>
<svg width="199px" height="59px" viewBox="0 0 199 59" version="1.1" xmlns="http://www.w3.org/2000/svg" xmlns:xlink="http://www.w3.org/1999/xlink">
    <!-- Generator: Sketch 3.8.3 (29802) - http://www.bohemiancoding.com/sketch -->
    <title>Natgeologo</title>
    <desc>Created with Sketch.</desc>
    <defs></defs>
    <g id="Page-1" stroke="none" stroke-width="1" fill="none" fill-rule="evenodd">
        <g id="Natgeologo" fill="#FFFFFF">
            <path d="M0,0 L0,58.992 L40.627,58.992 L40.627,0 L0,0 L0,0 Z M34.751,53.053 L5.855,53.053 L5.855,5.943 L34.751,5.943 L34.751,53.053 L34.751,53.053 Z" id="Shape"></path>
            <path d="M64.838,20.568 L64.781,20.568 C61.54,15.289 58.268,10.626 54.968,5.932 L52.45,5.932 L52.45,26.465 L55.229,26.465 L55.229,11.739 L55.257,11.739 C58.53,17.049 61.8,21.743 65.101,26.465 L67.619,26.465 L67.619,5.932 L64.838,5.932 L64.838,20.568 L64.838,20.568 Z M84.899,26.465 L78.443,5.932 L75.55,5.932 L68.544,26.465 L71.554,26.465 L73.321,20.862 L79.427,20.862 L81.02,26.465 L84.899,26.465 L84.899,26.465 Z M74.217,18.338 C75.028,15.639 75.839,13.15 76.562,9.978 L76.621,9.978 C77.432,13.149 78.155,15.639 78.908,18.338 L74.217,18.338 L74.217,18.338 Z M88.169,26.465 L91.643,26.465 L91.643,8.69 L96.97,8.69 L96.97,5.932 L82.844,5.932 L82.844,8.69 L88.17,8.69 L88.17,26.465 L88.169,26.465 Z M101.542,5.932 L98.098,5.932 L98.098,26.465 L101.542,26.465 L101.542,5.932 L101.542,5.932 Z M112.255,26.815 C117.553,26.815 120.853,22.035 120.853,15.904 C120.853,10.155 117.204,5.578 112.255,5.578 C107.304,5.578 103.655,10.155 103.655,15.904 C103.655,22.036 106.955,26.815 112.255,26.815 L112.255,26.815 Z M112.255,8.513 C115.7,8.513 117.146,12.12 117.146,15.905 C117.146,19.835 115.874,23.883 112.255,23.883 C108.636,23.883 107.363,19.836 107.363,15.905 C107.363,12.12 108.81,8.513 112.255,8.513 L112.255,8.513 Z M125.742,11.739 L125.774,11.739 C129.044,17.049 132.314,21.743 135.615,26.465 L138.133,26.465 L138.133,5.932 L135.354,5.932 L135.354,20.568 L135.296,20.568 C132.055,15.289 128.783,10.626 125.483,5.932 L122.965,5.932 L122.965,26.465 L125.742,26.465 L125.742,11.739 L125.742,11.739 Z M143.833,20.862 L149.943,20.862 L151.535,26.465 L155.413,26.465 L148.959,5.932 L146.064,5.932 L139.057,26.465 L142.071,26.465 L143.833,20.862 L143.833,20.862 Z M147.079,9.978 L147.136,9.978 C147.945,13.149 148.669,15.639 149.424,18.338 L144.731,18.338 C145.544,15.639 146.352,13.149 147.079,9.978 L147.079,9.978 Z M166.731,23.706 L159.872,23.706 L159.872,5.932 L156.426,5.932 L156.426,26.465 L166.732,26.465 L166.732,23.706 L166.731,23.706 Z M62.006,49.949 C61.281,50.331 60.501,50.449 59.575,50.449 C56.594,50.449 53.699,47.573 53.699,42.705 C53.699,38.042 56.217,35.078 59.923,35.078 C61.255,35.078 62.702,35.576 63.628,36.162 L64.756,33.729 C63.599,32.847 61.717,32.144 59.835,32.144 C53.757,32.144 49.993,37.043 49.993,42.645 C49.993,48.688 53.757,53.382 59.718,53.382 C61.687,53.382 63.627,52.857 65.481,52.12 L65.481,43.641 L62.006,43.641 L62.006,49.949 L62.006,49.949 Z M72.107,43.643 L77.782,43.643 L77.782,40.887 L72.107,40.887 L72.107,35.255 L77.898,35.255 L77.898,32.498 L68.635,32.498 L68.635,53.031 L78.94,53.031 L78.94,50.271 L72.107,50.271 L72.107,43.643 L72.107,43.643 Z M88.609,32.145 C83.658,32.145 80.012,36.721 80.012,42.471 C80.012,48.601 83.311,53.383 88.609,53.383 C93.906,53.383 97.205,48.601 97.205,42.471 C97.205,36.721 93.558,32.145 88.609,32.145 L88.609,32.145 Z M88.609,50.449 C84.989,50.449 83.716,46.401 83.716,42.47 C83.716,38.685 85.163,35.077 88.609,35.077 C92.053,35.077 93.5,38.684 93.5,42.47 C93.5,46.401 92.228,50.449 88.609,50.449 L88.609,50.449 Z M110.406,49.949 C109.683,50.331 108.9,50.449 107.974,50.449 C104.992,50.449 102.097,47.573 102.097,42.705 C102.097,38.042 104.616,35.078 108.323,35.078 C109.654,35.078 111.102,35.576 112.025,36.162 L113.155,33.729 C111.998,32.847 110.115,32.144 108.232,32.144 C102.156,32.144 98.393,37.043 98.393,42.645 C98.393,48.688 102.156,53.382 108.12,53.382 C110.086,53.382 112.025,52.857 113.88,52.12 L113.88,43.641 L110.406,43.641 L110.406,49.949 L110.406,49.949 Z M128.759,38.424 C128.759,34.432 126.355,32.498 122.478,32.498 L117.064,32.498 L117.064,53.031 L120.537,53.031 L120.537,45.287 L122.1,45.287 L125.371,53.031 L129.336,53.031 L125.257,44.523 C127.483,43.321 128.759,40.887 128.759,38.424 L128.759,38.424 Z M121.985,42.646 C121.636,42.676 120.824,42.706 120.536,42.735 L120.536,35.256 L122.073,35.256 C124.125,35.256 125.282,36.456 125.282,38.569 C125.282,41.325 123.635,42.559 121.985,42.646 L121.985,42.646 Z M136.401,32.498 L129.394,53.031 L132.403,53.031 L134.17,47.427 L140.278,47.427 L141.874,53.031 L145.75,53.031 L139.294,32.498 L136.401,32.498 L136.401,32.498 Z M135.07,44.907 C135.88,42.206 136.69,39.713 137.414,36.546 L137.473,36.546 C138.282,39.713 139.006,42.206 139.76,44.907 L135.07,44.907 L135.07,44.907 Z M171.167,40.388 L163.958,40.388 L163.958,32.498 L160.513,32.498 L160.513,53.031 L163.958,53.031 L163.958,43.144 L171.167,43.144 L171.167,53.031 L174.639,53.031 L174.639,32.554 L171.167,32.554 L171.167,40.388 L171.167,40.388 Z M177.967,53.029 L181.411,53.029 L181.411,32.498 L177.967,32.498 L177.967,53.029 L177.967,53.029 Z M193.57,50.449 C190.212,50.449 187.374,47.573 187.374,42.705 C187.374,38.042 189.953,35.078 193.483,35.078 C194.815,35.078 196.205,35.693 197.045,36.221 L198.144,33.73 C196.957,32.908 195.28,32.145 193.484,32.145 C187.434,32.145 183.699,37.044 183.699,42.646 C183.699,48.689 187.463,53.383 193.428,53.383 C195.106,53.383 196.958,52.708 198,51.976 L197.046,49.423 C196.148,50.009 194.902,50.449 193.57,50.449 L193.57,50.449 Z M152.262,32.498 L146.852,32.498 L146.852,53.031 L150.326,53.031 L150.326,45.287 L151.887,45.287 C156.029,45.287 158.545,41.882 158.545,38.424 C158.544,34.432 156.144,32.498 152.262,32.498 L152.262,32.498 Z M151.771,42.646 C151.424,42.673 150.586,42.701 150.325,42.728 L150.325,35.255 L151.886,35.255 C153.914,35.255 155.072,36.455 155.072,38.568 C155.071,41.325 153.421,42.559 151.771,42.646 L151.771,42.646 Z" id="Shape"></path>
        </g>
    </g>
</svg>