<?xml version="1.0" encoding="UTF-8" standalone="no"?>
<svg width="137px" height="60px" viewBox="0 0 137 60" version="1.1" xmlns="http://www.w3.org/2000/svg" xmlns:xlink="http://www.w3.org/1999/xlink">
    <!-- Generator: Sketch 3.6.1 (26313) - http://www.bohemiancoding.com/sketch -->
    <title>Artboard</title>
    <desc>Created with Sketch.</desc>
    <defs></defs>
    <g id="Page-1" stroke="none" stroke-width="1" fill="none" fill-rule="evenodd">
        <g id="Artboard">
            <rect id="Rectangle-1" fill-opacity="0" fill="#0077C2" x="0" y="0" width="137" height="60"></rect>
            <path d="M22.7671074,21.7136901 C22.7671074,23.2564358 22.4650765,24.6219538 21.8610057,25.8102849 C21.2569348,26.9986161 20.4202746,27.981928 19.3509998,28.7602502 C18.2956117,29.5385723 17.1360908,30.1084068 15.8724024,30.4697707 C14.608714,30.8311345 13.2686689,31.0118138 11.852227,31.0118138 L8.54026901,31.0118138 L8.54026901,39.9763725 C8.54026901,40.4628238 8.62011625,40.8901997 8.77981314,41.2585129 C8.93951002,41.626826 9.26931386,41.9082687 9.76923455,42.1028492 C10.0191949,42.2001395 10.4600905,42.2904791 11.0919347,42.3738707 C11.7237789,42.4572624 12.3035394,42.5059068 12.8312334,42.5198054 L12.8312334,44 L0.145809471,44 L0.145809471,42.5198054 C0.479089928,42.4920082 0.961645018,42.4433638 1.59348922,42.3738707 C2.22533342,42.3043777 2.66622907,42.2140381 2.91618942,42.1028492 C3.33278999,41.9221673 3.63482087,41.6580976 3.82229113,41.3106324 C4.00976139,40.9631671 4.10349511,40.5184183 4.10349511,39.9763725 L4.10349511,18.628214 C4.10349511,18.1417627 4.03406272,17.703963 3.89519586,17.3148019 C3.75632901,16.9256409 3.42999679,16.6337744 2.91618942,16.4391939 C2.38849536,16.258512 1.86428084,16.1299517 1.34353012,16.0535094 C0.82277941,15.977067 0.374940514,15.924948 0,15.8971508 L0,14.4169562 L13.497791,14.4169562 C16.2473548,14.4169562 18.479606,15.0806049 20.1946117,16.4079222 C21.9096174,17.7352394 22.7671074,19.503811 22.7671074,21.7136901 L22.7671074,21.7136901 Z M16.4348104,26.7588603 C16.9069577,26.091727 17.2194034,25.4002815 17.372157,24.6845031 C17.5249105,23.9687247 17.6012861,23.3259236 17.6012861,22.7560806 C17.6012861,21.9638598 17.5075524,21.1577525 17.3200821,20.3377345 C17.1326119,19.5177165 16.8097513,18.8019489 16.3514907,18.19041 C15.8654567,17.5371753 15.2266787,17.0298837 14.4351376,16.6685198 C13.6435965,16.3071559 12.6576566,16.1264767 11.4772883,16.1264767 L8.54026901,16.1264767 L8.54026901,29.1980542 L10.6649213,29.1980542 C12.1646834,29.1980542 13.3832217,28.965256 14.320573,28.4996525 C15.2579243,28.0340491 15.962663,27.4537908 16.4348104,26.7588603 L16.4348104,26.7588603 Z M40.7020691,44 L27.3917474,44 L27.3917474,42.5198054 C27.7666879,42.4920082 28.3082605,42.450313 29.0164815,42.3947186 C29.7247025,42.3391241 30.2246156,42.2557337 30.516236,42.1445448 C30.9744967,41.9638629 31.3077721,41.7171663 31.5160724,41.4044475 C31.7243727,41.0917288 31.8285213,40.6574038 31.8285213,40.1014593 L31.8285213,18.6699097 C31.8285213,18.1834583 31.7521457,17.7769301 31.5993921,17.4503127 C31.4466386,17.1236954 31.0855902,16.8492019 30.516236,16.6268242 C30.0996355,16.4600409 29.575421,16.3036838 28.9435768,16.1577484 C28.3117326,16.011813 27.7944613,15.924948 27.3917474,15.8971508 L27.3917474,14.4169562 L40.7020691,14.4169562 L40.7020691,15.8971508 C40.2715818,15.9110494 39.7577822,15.9631684 39.1606547,16.0535094 C38.5635272,16.1438503 38.0427843,16.2585122 37.5984103,16.3974983 C37.0707163,16.5642816 36.7166111,16.8353004 36.5360842,17.2105629 C36.3555573,17.5858254 36.2652952,18.0027774 36.2652952,18.4614315 L36.2652952,39.8721334 C36.2652952,40.3307876 36.3659721,40.7373158 36.5673291,41.0917304 C36.768686,41.4461449 37.1123763,41.7275876 37.5984103,41.9360667 C37.8900307,42.0472556 38.3656426,42.1688666 39.0252602,42.3009034 C39.6848777,42.4329402 40.2438085,42.5059068 40.7020691,42.5198054 L40.7020691,44 Z M74.3427938,44 L60.511724,44 L60.511724,42.5198054 C61.6504322,42.4920082 62.5704113,42.3842956 63.271689,42.1966644 C63.9729666,42.0090331 64.3236002,41.7206413 64.3236002,41.3314802 C64.3236002,41.123001 64.1639057,40.6921506 63.8445119,40.0389159 C63.5251181,39.3856812 63.115467,38.6560151 62.6155464,37.8498958 C62.0600789,36.9603847 61.4004712,35.91453 60.6367035,34.7123002 C59.8729358,33.5100704 59.1161228,32.3599777 58.3662418,31.2619875 C57.1442134,32.8742263 55.7555657,34.8165279 54.2002569,37.0889507 C52.6449481,39.3613734 51.8673054,40.6990946 51.8673054,41.1021543 C51.8673054,41.5608084 52.0790741,41.8978446 52.5026181,42.1132731 C52.926162,42.3287016 53.8600276,42.464211 55.3042429,42.5198054 L55.3042429,44 L44.264383,44 L44.264383,42.5198054 C44.6254368,42.4920082 45.0871622,42.4398892 45.6495729,42.3634468 C46.2119837,42.2870045 46.6737091,42.1584443 47.0347629,41.9777623 C47.7568706,41.5886013 48.336631,41.1681746 48.7740616,40.7164698 C49.2114922,40.2647649 49.6523878,39.7331511 50.0967618,39.1216122 C50.9855097,37.8985345 52.1242008,36.373185 53.5128694,34.5455177 C54.901538,32.7178505 56.1304912,31.0535169 57.199766,29.552467 C56.3943382,28.3710851 55.3667389,26.8735323 54.1169372,25.0597637 C52.8671355,23.2459951 51.5340337,21.3036935 50.1175917,19.2328006 C49.5204642,18.3571881 49.0517956,17.7387092 48.7115718,17.3773454 C48.371348,17.0159815 47.9165659,16.7032675 47.3472118,16.4391939 C47.0139313,16.2863092 46.5522059,16.1646982 45.9620218,16.0743572 C45.3718376,15.9840162 44.903169,15.924948 44.5560019,15.8971508 L44.5560019,14.4169562 L58.2412622,14.4169562 L58.2412622,15.8971508 C57.4358345,15.924948 56.5991742,16.0257114 55.7312563,16.1994441 C54.8633385,16.3731767 54.4293861,16.6407209 54.4293861,17.0020848 C54.4293861,17.2661584 54.602967,17.7282802 54.9501342,18.3884642 C55.2973013,19.0486482 55.7069524,19.7539921 56.1790997,20.504517 C56.6651337,21.2828392 57.2067063,22.1445401 57.8038338,23.0896456 C58.4009613,24.0347511 59.1300014,25.1257756 59.9909759,26.3627519 C61.5601714,24.2362646 62.9141029,22.3182851 64.0528111,20.6087561 C65.1915194,18.899227 65.7608649,17.7873549 65.7608649,17.2731063 C65.7608649,16.8283508 65.5004935,16.5017384 64.9797428,16.2932592 C64.4589921,16.0847801 63.5806724,15.9527452 62.3447573,15.8971508 L62.3447573,14.4169562 L73.3637873,14.4169562 L73.3637873,15.8971508 C73.0166202,15.9110494 72.5618381,15.9631684 71.9994273,16.0535094 C71.4370165,16.1438503 70.9683479,16.2724106 70.5934074,16.4391939 C69.8712997,16.7866591 69.3331987,17.161916 68.9790883,17.5649757 C68.6249778,17.9680354 68.1493659,18.5517682 67.5522384,19.3161918 C66.4413036,20.7477486 65.4171759,22.092419 64.4798246,23.3502432 C63.5424733,24.6080674 62.414197,26.1403662 61.0949619,27.9471855 C62.2058967,29.5316271 63.4452648,31.3314701 64.8131034,33.3467686 C66.1809419,35.3620671 67.4897424,37.2869957 68.7395441,39.1216122 C69.1700314,39.7470497 69.6630013,40.3412064 70.2184688,40.9041001 C70.7739362,41.4669938 71.2252467,41.8526744 71.5724139,42.0611536 C71.9056943,42.2557341 72.3535332,42.3773451 72.915944,42.4259903 C73.4783547,42.4746354 73.9539666,42.5059068 74.3427938,42.5198054 L74.3427938,44 Z M105.525587,44 L93.2151021,44 L93.2151021,42.5198054 C94.2982636,42.4503124 95.197413,42.3113284 95.9125773,42.1028492 C96.6277416,41.89437 96.9853184,41.6372496 96.9853184,41.3314802 C96.9853184,41.2063927 96.9714319,41.0535103 96.9436586,40.8728284 C96.9158852,40.6921464 96.8742258,40.5323148 96.818679,40.3933287 L94.3607479,33.7637248 L84.0082755,33.7637248 C83.6194483,34.7366275 83.303531,35.58443 83.060514,36.3071577 C82.817497,37.0298855 82.5987849,37.6970088 82.4043713,38.3085476 C82.2238444,38.9061878 82.0988661,39.3926319 82.0294327,39.7678944 C81.9599993,40.1431568 81.9252831,40.4489217 81.9252831,40.6851981 C81.9252831,41.2411425 82.3627071,41.6719929 83.2375683,41.9777623 C84.1124295,42.2835318 85.0983694,42.464211 86.1954176,42.5198054 L86.1954176,44 L75.0722379,44 L75.0722379,42.5198054 C75.4332918,42.4920082 75.8846023,42.4120924 76.426183,42.2800556 C76.9677638,42.1480188 77.412131,41.9708142 77.7592982,41.7484364 C78.3147656,41.3731739 78.7452464,40.9805441 79.0507535,40.5705351 C79.3562606,40.1605261 79.6548199,39.5941662 79.9464403,38.8714385 C81.4323156,35.1605096 83.07092,30.9909891 84.8623024,26.3627519 C86.6536849,21.7345147 88.2506298,17.6136386 89.653185,14 L91.319579,14 L101.172133,39.5177206 C101.380434,40.0597664 101.616504,40.4975661 101.880351,40.8311327 C102.144198,41.1646994 102.512189,41.4913118 102.984337,41.8109798 C103.30373,42.0055604 103.720325,42.1688666 104.234132,42.3009034 C104.747939,42.4329402 105.17842,42.5059068 105.525587,42.5198054 L105.525587,44 Z M93.6108707,31.9082696 L89.1324369,20.4419736 L84.7373229,31.9082696 L93.6108707,31.9082696 Z M137,44 L129.042969,44 C127.27936,41.2341766 125.685887,38.8436515 124.262501,36.828353 C122.839116,34.8130546 121.294245,32.7352435 119.627843,30.5948575 L116.607504,30.5948575 L116.607504,39.9763725 C116.607504,40.4628238 116.68388,40.8901997 116.836633,41.2585129 C116.989387,41.626826 117.315719,41.9082687 117.81564,42.1028492 C118.0656,42.2001395 118.503024,42.2904791 119.127925,42.3738707 C119.752826,42.4572624 120.280512,42.5059068 120.710999,42.5198054 L120.710999,44 L108.213044,44 L108.213044,42.5198054 C108.546325,42.4920082 109.02888,42.4433638 109.660724,42.3738707 C110.292568,42.3043777 110.733464,42.2140381 110.983424,42.1028492 C111.400025,41.9221673 111.702056,41.6580976 111.889526,41.3106324 C112.076996,40.9631671 112.17073,40.5184183 112.17073,39.9763725 L112.17073,18.5865184 C112.17073,18.1000671 112.101298,17.6692166 111.962431,17.2939541 C111.823564,16.9186917 111.497232,16.6337744 110.983424,16.4391939 C110.636257,16.3141064 110.184947,16.1994446 109.629479,16.095205 C109.074012,15.9909654 108.601872,15.924948 108.213044,15.8971508 L108.213044,14.4169562 L121.856645,14.4169562 C123.106447,14.4169562 124.279854,14.5455164 125.376902,14.8026407 C126.47395,15.059765 127.466833,15.4732425 128.355581,16.0430855 C129.216556,16.5990299 129.903937,17.3252214 130.417744,18.2216817 C130.931551,19.1181421 131.188451,20.1987428 131.188451,21.4635163 C131.188451,22.6032024 131.01487,23.6108365 130.667703,24.4864489 C130.320536,25.3620614 129.806736,26.1195243 129.126289,26.7588603 C128.501388,27.3565006 127.751518,27.874216 126.876657,28.3120222 C126.001796,28.7498285 125.036685,29.1216107 123.981297,29.4273801 C125.439399,31.3592869 126.650994,32.9853999 127.616119,34.3057679 C128.581244,35.6261359 129.765066,37.2314013 131.167621,39.1216122 C131.778635,39.9555288 132.330623,40.5705331 132.8236,40.9666435 C133.316577,41.3627539 133.806076,41.6858917 134.29211,41.9360667 C134.653164,42.1167486 135.104474,42.2557327 135.646055,42.3530229 C136.187636,42.4503132 136.638946,42.5059068 137,42.5198054 L137,44 Z M126.04346,21.943016 C126.04346,20.1500953 125.52966,18.7289837 124.502045,17.6796386 C123.474431,16.6302936 122.023294,16.1056289 120.148591,16.1056289 L116.607504,16.1056289 L116.607504,28.8019458 L119.336224,28.8019458 C121.252587,28.8019458 122.849532,28.1869415 124.127107,26.9569145 C125.404682,25.7268875 126.04346,24.0556047 126.04346,21.943016 L126.04346,21.943016 Z" id="PIXAR" fill="#FFFFFF"></path>
        </g>
    </g>
</svg>
