<?xml version="1.0" encoding="UTF-8" standalone="no"?>
<svg width="139px" height="55px" viewBox="0 0 139 55" version="1.1" xmlns="http://www.w3.org/2000/svg" xmlns:xlink="http://www.w3.org/1999/xlink">
    <!-- Generator: Sketch 3.7.2 (28276) - http://www.bohemiancoding.com/sketch -->
    <title>business-class-logo-blue</title>
    <desc>Created with Sketch.</desc>
    <defs>
        <rect id="path-1" x="0" y="0" width="38.2061483" height="26" rx="2.7023708"></rect>
        <rect id="path-3" x="0" y="0" width="38.2061483" height="26" rx="2.7023708"></rect>
        <rect id="path-5" x="0" y="0" width="38.2061483" height="26" rx="2.7023708"></rect>
    </defs>
    <g id="Page-1" stroke="none" stroke-width="1" fill="none" fill-rule="evenodd">
        <g id="1.-Team-Settings-tab---Free-NonAdmin--Default" transform="translate(-599.000000, -541.000000)">
            <g id="Group-7" transform="translate(70.000000, 425.000000)">
                <g id="Group-11">
                    <g id="business-class-logo-blue" transform="translate(529.000000, 116.000000)">
                        <g id="Page-1">
                            <g id="Original-Assets">
                                <g id="Group">
                                    <g id="Business-Class">
                                        <g id="Business-Class-Logo---Blue-Copy-2">
                                            <g id="Logo">
                                                <g id="Bottom-Row" transform="translate(0.206999, 41.972222)" fill="#42568C">
                                                    <path d="M0.0443569832,0.243777778 L0.0443569832,12.6637778 L4.96691756,12.6637778 C6.16136241,12.6637778 7.22912371,12.4117778 8.02542028,11.7817778 C8.7312286,11.2237778 9.23796277,10.3417778 9.23796277,8.99177777 C9.23796277,7.44377777 8.5864474,6.41777778 6.95765898,6.12977777 C8.36927561,5.75177777 9.00269333,4.61777778 9.00269333,3.23177777 C9.00269333,2.15177778 8.6226427,1.43177778 7.98922498,0.963777778 C7.33770961,0.459777778 6.3785342,0.243777778 5.2745776,0.243777778 L0.0443569832,0.243777778 L0.0443569832,0.243777778 Z M2.88568791,7.47977777 L4.73164813,7.47977777 C5.70892118,7.47977777 6.19755771,7.74977778 6.19755771,8.82977778 C6.19755771,9.42377777 6.05277652,9.80177777 5.79940943,10.0357778 C5.54604234,10.2697778 5.14789406,10.3597778 4.62306223,10.3597778 L2.88568791,10.3597778 L2.88568791,7.47977777 L2.88568791,7.47977777 Z M2.88568791,2.56577777 L4.74974577,2.56577777 C5.14789406,2.56577777 5.47365174,2.61977778 5.65462823,2.78177778 C5.83560473,2.94377778 5.96228827,3.23177777 5.96228827,3.75377778 C5.96228827,5.01377778 5.2383823,5.31977778 4.22491395,5.31977778 L2.88568791,5.31977778 L2.88568791,2.56577777 L2.88568791,2.56577777 Z M11.2287042,0.243777778 L11.2287042,8.28977778 C11.2287042,9.44177778 11.3734854,10.6117778 12.115489,11.4937778 C12.785102,12.2857778 13.9976445,12.8797778 16.0245812,12.8797778 C18.1058109,12.8797778 19.4450369,12.2317778 20.1689429,11.3137778 C20.8385559,10.4677778 21.0014347,9.36977777 21.0014347,8.19977777 L21.0014347,0.243777778 L18.0696156,0.243777778 L18.0696156,8.23577778 C18.0696156,9.63977778 17.9067367,10.3597778 16.1331671,10.3597778 C14.2691092,10.3597778 14.1605234,9.56777777 14.1605234,8.23577778 L14.1605234,0.243777778 L11.2287042,0.243777778 L11.2287042,0.243777778 Z M31.1904113,1.10777778 C30.2312359,0.315777778 28.6205452,0.0277777777 27.4261003,0.0277777777 C26.1773625,0.0277777777 25.0734058,0.333777777 24.1685234,0.999777777 C23.3360315,1.61177778 22.7569067,2.45777778 22.7569067,3.77177778 C22.7569067,8.19977777 28.4938616,6.97577778 28.4938616,9.11777778 C28.4938616,10.1977778 27.7880533,10.4137778 26.9374638,10.4137778 C25.996386,10.4137778 24.7838434,10.1437778 23.9694492,9.49577778 L22.5216373,11.6377778 C23.5351056,12.5557778 25.326773,12.8797778 26.6479014,12.8797778 C27.8604439,12.8797778 29.0367911,12.5917778 29.8873806,12.0157778 C30.7741654,11.4217778 31.4618761,10.4137778 31.4618761,8.97377778 C31.4618761,4.47377778 25.7249213,5.58977777 25.7249213,3.69977777 C25.7249213,2.72777777 26.3040461,2.49377778 27.1908309,2.49377778 C27.9509321,2.49377778 29.0548887,2.69177777 29.81499,3.21377778 L31.1904113,1.10777778 L31.1904113,1.10777778 Z M33.1992504,0.243777778 L33.1992504,12.6637778 L36.1310696,12.6637778 L36.1310696,0.243777778 L33.1992504,0.243777778 L33.1992504,0.243777778 Z M38.6104475,0.243777778 L38.6104475,12.6637778 L41.4155831,12.6637778 L41.3250949,4.18577778 L45.3065777,12.6637778 L49.0165958,12.6637778 L49.0165958,0.243777778 L46.2114602,0.243777778 L46.3019484,8.72177777 L42.3204656,0.243777778 L38.6104475,0.243777778 L38.6104475,0.243777778 Z M51.5140714,0.243777778 L51.5140714,12.6637778 L59.0788887,12.6637778 L59.0788887,10.2517778 L54.3734999,10.2517778 L54.3734999,7.58777777 L58.5721546,7.58777777 L58.5721546,5.15777777 L54.3734999,5.15777777 L54.3734999,2.67377778 L58.9884005,2.67377778 L58.9884005,0.243777778 L51.5140714,0.243777778 L51.5140714,0.243777778 Z M68.761131,1.10777778 C67.8019556,0.315777778 66.1912649,0.0277777777 64.99682,0.0277777777 C63.7480822,0.0277777777 62.6441256,0.333777777 61.7392432,0.999777777 C60.9067513,1.61177778 60.3276265,2.45777778 60.3276265,3.77177778 C60.3276265,8.19977777 66.0645813,6.97577778 66.0645813,9.11777778 C66.0645813,10.1977778 65.358773,10.4137778 64.5081835,10.4137778 C63.5671057,10.4137778 62.3545632,10.1437778 61.540169,9.49577778 L60.0923571,11.6377778 C61.1058254,12.5557778 62.8974927,12.8797778 64.2186211,12.8797778 C65.4311636,12.8797778 66.6075108,12.5917778 67.4581003,12.0157778 C68.3448851,11.4217778 69.0325958,10.4137778 69.0325958,8.97377778 C69.0325958,4.47377778 63.295641,5.58977777 63.295641,3.69977777 C63.295641,2.72777777 63.8747658,2.49377778 64.7615506,2.49377778 C65.5216518,2.49377778 66.6256084,2.69177777 67.3857097,3.21377778 L68.761131,1.10777778 L68.761131,1.10777778 Z M78.1900063,1.10777778 C77.2308309,0.315777778 75.6201401,0.0277777777 74.4256952,0.0277777777 C73.1769574,0.0277777777 72.0730008,0.333777777 71.1681184,0.999777777 C70.3356265,1.61177778 69.7565018,2.45777778 69.7565018,3.77177778 C69.7565018,8.19977777 75.4934565,6.97577778 75.4934565,9.11777778 C75.4934565,10.1977778 74.7876482,10.4137778 73.9370587,10.4137778 C72.995981,10.4137778 71.7834385,10.1437778 70.9690442,9.49577778 L69.5212323,11.6377778 C70.5347007,12.5557778 72.3263679,12.8797778 73.6474963,12.8797778 C74.8600388,12.8797778 76.036386,12.5917778 76.8869755,12.0157778 C77.7737603,11.4217778 78.461471,10.4137778 78.461471,8.97377778 C78.461471,4.47377778 72.7245162,5.58977777 72.7245162,3.69977777 C72.7245162,2.72777777 73.303641,2.49377778 74.1904258,2.49377778 C74.9505271,2.49377778 76.0544837,2.69177777 76.8145849,3.21377778 L78.1900063,1.10777778 L78.1900063,1.10777778 Z M90.6411889,9.13577777 C89.9534782,9.90977778 89.1028887,10.3777778 88.1437133,10.3777778 C87.437905,10.3777778 87.0397567,10.1257778 86.7863896,9.78377778 C86.406339,9.27977777 86.2434602,8.43377777 86.2434602,6.54377777 C86.2434602,4.61777778 86.406339,3.75377778 86.713999,3.26777778 C86.9673661,2.87177777 87.437905,2.56577777 88.3427875,2.56577777 C89.139084,2.56577777 89.9715759,2.79977777 90.6049936,3.39377778 L92.1975867,1.39577778 C91.202216,0.333777777 89.7725018,0.0277777777 88.4332757,0.0277777777 C86.6416084,0.0277777777 85.4652612,0.567777778 84.6870623,1.39577778 C83.5107151,2.61977778 83.2030551,4.52777777 83.2030551,6.59777777 C83.2030551,8.48777777 83.4564222,10.4317778 84.650867,11.6377778 C85.3566754,12.3757778 86.4244367,12.8797778 88.0351274,12.8797778 C89.8448923,12.8797778 91.2384113,12.2497778 92.3604656,10.9357778 L90.6411889,9.13577777 L90.6411889,9.13577777 Z M93.9349611,0.243777778 L93.9349611,12.6637778 L101.155923,12.6637778 L101.155923,10.0717778 L96.8667802,10.0717778 L96.8667802,0.243777778 L93.9349611,0.243777778 L93.9349611,0.243777778 Z M112.8832,12.6637778 L108.95601,0.243777778 L105.445066,0.243777778 L101.517876,12.6637778 L104.503988,12.6637778 L105.173601,10.3057778 L109.136986,10.3057778 L109.806599,12.6637778 L112.8832,12.6637778 L112.8832,12.6637778 Z M108.521666,7.98377778 L105.807019,7.98377778 L107.164343,3.17777777 L108.521666,7.98377778 L108.521666,7.98377778 Z M121.769146,1.10777778 C120.80997,0.315777778 119.199279,0.0277777777 118.004834,0.0277777777 C116.756097,0.0277777777 115.65214,0.333777777 114.747258,0.999777777 C113.914766,1.61177778 113.335641,2.45777778 113.335641,3.77177778 C113.335641,8.19977777 119.072596,6.97577778 119.072596,9.11777778 C119.072596,10.1977778 118.366787,10.4137778 117.516198,10.4137778 C116.57512,10.4137778 115.362578,10.1437778 114.548183,9.49577778 L113.100372,11.6377778 C114.11384,12.5557778 115.905507,12.8797778 117.226636,12.8797778 C118.439178,12.8797778 119.615525,12.5917778 120.466115,12.0157778 C121.3529,11.4217778 122.04061,10.4137778 122.04061,8.97377778 C122.04061,4.47377778 116.303655,5.58977777 116.303655,3.69977777 C116.303655,2.72777777 116.88278,2.49377778 117.769565,2.49377778 C118.529666,2.49377778 119.633623,2.69177777 120.393724,3.21377778 L121.769146,1.10777778 L121.769146,1.10777778 Z M131.198021,1.10777778 C130.238845,0.315777778 128.628155,0.0277777777 127.43371,0.0277777777 C126.184972,0.0277777777 125.081015,0.333777777 124.176133,0.999777777 C123.343641,1.61177778 122.764516,2.45777778 122.764516,3.77177778 C122.764516,8.19977777 128.501471,6.97577778 128.501471,9.11777778 C128.501471,10.1977778 127.795663,10.4137778 126.945073,10.4137778 C126.003995,10.4137778 124.791453,10.1437778 123.977059,9.49577778 L122.529247,11.6377778 C123.542715,12.5557778 125.334382,12.8797778 126.655511,12.8797778 C127.868053,12.8797778 129.0444,12.5917778 129.89499,12.0157778 C130.781775,11.4217778 131.469485,10.4137778 131.469485,8.97377778 C131.469485,4.47377778 125.732531,5.58977777 125.732531,3.69977777 C125.732531,2.72777777 126.311655,2.49377778 127.19844,2.49377778 C127.958542,2.49377778 129.062498,2.69177777 129.822599,3.21377778 L131.198021,1.10777778 L131.198021,1.10777778 Z" id="BUSINESS-CLASS"></path>
                                                </g>
                                                <g id="Top-Row" transform="translate(1.508137, 0.025000)">
                                                    <g id="Trello" transform="translate(46.131263, 0.000000)" fill="#42568C">
                                                        <path d="M66.5212898,26.7705185 C64.7292279,27.7014765 63.2408705,30.18182 61.0420275,31.6268382 C60.8975059,31.7218137 60.7529844,31.7693015 60.6566368,31.7693015 C60.4639415,31.7693015 60.2230724,31.5793505 60.2230724,30.724571 C60.2230724,27.780331 61.186549,26.3556985 62.0055041,24.2662377 C64.8477602,17.0006127 69.7133175,10.7797181 74.0489625,3.9889706 C74.3861793,3.4666054 74.5788745,2.89675245 74.5788745,2.27941176 C74.5788745,1.75704657 74.3861793,1.32965686 74.1453101,0.807291668 C73.9526146,0.37990196 73.0854856,0 72.122009,0 C71.592097,0 71.1103585,0.047487745 70.4840989,0.047487745 C68.2199286,0.047487745 67.7381903,3.32414215 67.2082781,4.17892158 C63.5952405,10.2098652 59.452291,17.6654412 57.3326423,22.9365809 C56.8782943,24.0916326 56.3883356,25.2466843 56.0100731,26.4307777 C53.7178385,26.7580535 52.1108326,29.9171258 49.5092118,31.6268382 C49.3646902,31.7218137 49.2201687,31.7693015 49.1238211,31.7693015 C48.9311259,31.7693015 48.6902567,31.5793505 48.6902567,30.724571 C48.6902567,27.780331 49.6537333,26.3556985 50.4726884,24.2662377 C53.3149446,17.0006127 58.1805018,10.7797181 62.5161468,3.9889706 C62.8533636,3.4666054 63.0460588,2.89675245 63.0460588,2.27941176 C63.0460588,1.75704657 62.8533636,1.32965686 62.6124945,0.807291668 C62.419799,0.37990196 61.5526702,0 60.5891934,0 C60.0592814,0 59.5775431,0.047487745 58.9512832,0.047487745 C56.687113,0.047487745 56.2053747,3.32414215 55.6754624,4.17892158 C52.0624249,10.2098652 47.9194753,17.6654412 45.7998266,22.9365809 C45.5325646,23.6160195 45.2529805,24.2954581 44.9910573,24.9808078 C42.6940116,26.448268 40.6795922,28.8082452 37.8431851,30.4396848 C37.262657,30.7751377 35.4726949,32.0211065 34.0213743,32.0211065 C33.6827329,32.0211065 33.3924687,31.9252627 33.1022045,31.781497 C32.6668083,31.5898095 32.2314122,30.679294 32.2314122,30.391763 C32.2314122,30.1521535 32.2797895,30.1042317 32.7635631,29.8167005 C37.0207701,27.2768415 40.5039397,23.6347794 43.5033357,19.9927174 C44.6160149,18.6509051 46.0673355,16.0152023 46.0673355,14.0983276 C46.0673355,12.852359 45.6319392,11.414703 44.1322414,10.8875624 C43.0679395,10.5041875 41.8585055,10.3125 40.8909584,10.3125 C38.3269589,10.3125 36.440242,11.4626248 35.3759401,12.5648278 C34.3747749,13.6235761 33.4038788,14.7085604 32.4939367,15.8281658 C31.4783668,15.0479099 30.1051639,14.7135605 28.8000035,14.7135605 C27.1864211,14.7135605 24.1548417,16.6837641 22.5901556,17.8370541 C22.3456734,18.0292691 22.1989841,18.1253766 22.1011912,18.1253766 C22.0522947,18.1253766 22.0033983,18.0773229 22.0033983,17.9812153 C22.0033983,17.9331616 22.1011912,17.5006779 22.1011912,16.7318179 C22.1011912,16.0590654 21.9545018,15.194098 21.3188481,14.1369155 C21.1721588,13.8966468 20.2920229,13.3680555 19.2163012,13.3680555 C17.8960973,13.3680555 16.6736863,13.9927543 16.6736863,14.6655068 C16.6736863,15.1460442 17.1137542,15.3382592 17.1137542,15.770743 C17.1137542,16.0110117 16.9181685,17.1162479 16.6247898,18.1734304 C15.7935503,21.2488702 14.7667251,24.2762563 13.6910034,27.3036425 C13.1042461,28.9855235 11.1483885,30.4751897 11.1483885,32.3012322 C11.1483885,32.8778772 11.53956,33.6467373 12.0774208,34.2233823 C12.9575568,35.184457 13.4954176,35.5208333 14.2777607,35.5208333 C14.6200358,35.5208333 15.0112073,35.4247258 15.3534824,35.1364033 C16.086929,34.5117047 16.4781005,33.887006 16.6736863,33.0220385 C17.9449937,27.3516962 21.6122268,23.5073964 25.6706314,20.9605477 C27.0397316,20.0955803 28.8977964,19.182559 29.1422785,19.182559 C29.344051,19.182559 29.6374111,19.2562032 29.9502073,19.3427127 C28.7694514,21.2164039 27.8136657,23.1954951 27.2001672,25.3120447 C27.0066579,25.982951 26.9099033,26.6059353 26.9099033,27.2768415 C26.9099033,28.3790445 27.15179,29.5291692 27.5388087,30.6313722 C28.0709598,32.164872 28.941752,33.5066842 30.151186,34.1296688 C32.3765443,35.2797935 33.9729968,35.9027777 35.4243174,35.9027777 C36.2467326,35.9027777 36.875638,35.7590122 37.5529212,35.3756372 C40.5778143,33.6802982 42.4893627,32.3742047 43.8802565,31.2171757 C43.988642,32.0395143 44.2819577,32.612989 44.9808715,33.336397 C45.8480005,34.2386642 47.1968679,35.045956 48.9792995,35.4258577 C49.2683426,35.4733455 49.5573857,35.5208333 49.8464285,35.5208333 C51.996202,35.5208333 54.0607002,33.7051267 55.6035683,32.004345 C55.7756626,32.4581598 56.058749,32.8655153 56.5136872,33.336397 C57.3808162,34.2386642 58.7296835,35.045956 60.5121152,35.4258577 C60.8011583,35.4733455 61.0902014,35.5208333 61.3792442,35.5208333 C63.6768205,35.5208333 65.8769929,33.446874 67.4470743,31.6558017 C68.0607249,32.6387693 69.4381842,33.5986858 71.0709765,34.379565 C71.5515106,34.6154273 72.1281512,34.7569445 72.6567388,34.7569445 C74.7230348,34.7569445 76.2126901,33.1059098 77.3659718,31.8794268 C80.3452825,28.671702 81.979098,24.7092187 83.2284863,19.708942 C83.3245931,19.3315626 83.4687532,19.1900454 83.6609668,19.1900454 C84.1415009,19.1900454 84.7661951,19.1900454 85.4389427,19.0957005 C86.7363843,18.9070108 87.7455057,18.482459 88.9468407,18.2937694 C89.6676417,18.1522521 89.5715349,17.91639 90.2442826,17.6805279 C90.7248164,17.4918382 91.1092436,17.3031485 91.1092436,16.8314243 C91.1092436,16.0294932 89.6195884,15.1803895 87.3610787,15.1803895 C85.5831028,15.1803895 84.5259282,15.3219068 83.8051272,15.3219068 C82.699899,15.3219068 82.4115785,14.9916999 81.6907776,13.1519754 C81.6907776,13.1519754 82.4115785,14.9916999 81.6907776,13.1519754 C81.5466175,12.774596 81.4024571,12.5859064 80.9699766,12.208527 C79.9608552,11.3594234 78.7114669,11.0763889 77.7023455,11.0763889 C75.2996755,11.0763889 73.2333794,13.4821824 71.7917775,15.5105965 C71.4554037,15.9823207 70.9748697,16.3597001 70.638496,16.8785967 C68.6316019,19.8337483 66.711294,23.1713951 66.5212898,26.7705185 L66.5212898,26.7705185 Z M7.1981433,10.3036723 C7.34504418,10.3036723 7.4429781,10.3513418 7.4429781,10.4943503 C7.4429781,10.5896893 7.39401114,10.7326978 7.05124242,11.4477401 C4.0642578,17.6924435 2.00764541,24.0324859 0.195867845,31.0399013 C0.146900884,31.230579 0,31.9456215 0,32.6606637 C0,33.3280368 0.195867845,34.043079 0.881405304,34.424435 C2.20351326,35.187147 3.28078641,35.5208333 4.01529081,35.5208333 C5.09256396,35.5208333 5.63120055,34.8534605 5.63120055,33.7570623 C5.63120055,32.8036723 5.68016751,31.802613 5.82706839,31.0399013 C7.1981433,24.0324859 9.25475568,18.5504944 12.4376082,12.8301554 C13.955584,10.1129944 14.1514518,9.96998588 14.1514518,9.73163843 C14.1514518,9.63629943 14.1024848,9.49329095 14.0045509,9.35028248 C15.9632294,8.92125705 18.3136435,8.63524013 20.4681898,8.63524013 C20.7130246,8.63524013 21.6923639,8.96892655 21.8392647,9.11193503 C22.1820335,9.44562148 22.5248022,9.7793079 23.1124057,9.7793079 C23.6020753,9.7793079 24.4345137,9.44562148 24.7283154,9.2549435 C25.4138529,8.7782486 25.7566216,8.25388418 25.7566216,7.39583333 C25.7566216,6.58545198 22.6717031,4.58333333 20.5171568,4.58333333 C17.8729409,4.58333333 15.4735598,4.91701978 13.2210795,5.3460452 C12.2417403,5.53672318 8.71611912,6.06108758 6.16983711,6.06108758 C3.72148905,6.06108758 3.86838993,5.72740113 2.84008374,5.72740113 C2.25248022,5.72740113 1.95867845,6.01341808 1.71384365,6.25176553 C1.46900884,6.490113 1.32210795,7.44350283 1.32210795,8.30155368 C1.32210795,8.7305791 1.32210795,9.06426553 1.56694276,9.35028248 C2.30144718,10.2083333 3.72148905,10.3990113 5.14153092,10.3990113 C6.36570498,10.3990113 7.05124242,10.3036723 7.1981433,10.3036723 L7.1981433,10.3036723 Z M40.749282,14.0418632 C40.749282,14.479658 40.6059747,14.7715212 40.032746,15.6957547 C39.4595173,16.6199882 39.6983628,16.6199882 38.9818268,17.5928656 C37.5965242,19.4899764 35.8768381,21.3870873 33.6316922,23.4787736 C33.0106945,24.0625 32.9151563,24.0625 32.8196183,24.0625 C32.771849,24.0625 32.676311,24.0138561 32.676311,23.9165684 C32.676311,23.7706368 32.72408,23.5760613 33.2017707,22.5545401 C34.6826114,19.3926887 36.4978358,17.3010024 38.5041361,15.2579599 C39.6028246,14.1391509 40.2715915,13.75 40.5104367,13.75 C40.653744,13.75 40.749282,13.7986439 40.749282,14.0418632 C40.749282,14.0418632 40.749282,13.7986439 40.749282,14.0418632 L40.749282,14.0418632 Z M78.4479483,15.2777778 C78.4975517,15.2777778 78.5471553,15.3243272 78.5967587,15.4174262 C78.6463624,15.5570746 78.7455692,15.6967231 78.9935869,15.882921 C79.192001,16.0225694 79.192001,16.6742621 79.192001,17.1863064 C79.192001,21.7016059 76.463808,25.4255643 73.7852184,29.196072 C73.1899764,30.0339628 72.8427517,30.173611 72.5451308,30.173611 C72.2971131,30.173611 71.9002852,29.568468 71.7514747,29.196072 C71.5530607,28.6840277 71.503457,28.0788845 71.503457,27.8461372 C71.503457,24.2152778 75.1741167,18.8155382 77.6046886,15.8363715 C78.0015167,15.3243272 78.2991376,15.2777778 78.4479483,15.2777778 C78.4479483,15.2777778 78.2991376,15.2777778 78.4479483,15.2777778 L78.4479483,15.2777778 Z" id="Type"></path>
                                                    </g>
                                                    <g id="Business-Class-Mark" transform="translate(0.000000, 3.500000)">
                                                        <path d="M14.6188692,0 C12.9308207,0 11.562387,1.35905167 11.562387,3.04105925 L11.562387,6.95894075 C11.562387,8.6384714 12.9306978,10 14.6188692,10 L23.587279,10 C25.2753277,10 26.6437613,8.64094833 26.6437613,6.95894075 L26.6437613,3.04105925 C26.6437613,1.3615286 25.2754506,0 23.587279,0 L14.6188692,0 L14.6188692,0 Z M15.0953346,2.5 C14.5323437,2.5 14.0759494,2.95253523 14.0759494,3.5118246 L14.0759494,6.4881754 C14.0759494,7.0469907 14.5340857,7.5 15.0953346,7.5 L23.1108136,7.5 C23.6738046,7.5 24.1301989,7.04746477 24.1301989,6.4881754 L24.1301989,3.5118246 C24.1301989,2.9530093 23.6720626,2.5 23.1108136,2.5 L15.0953346,2.5 L15.0953346,2.5 Z" id="Handle" fill="#B2BACF"></path>
                                                        <g id="Briefcase" transform="translate(0.000000, 5.000000)">
                                                            <g id="mask-2" fill="#FFFFFF">
                                                                <rect id="path-1" x="0" y="0" width="38.2061483" height="26" rx="2.7023708"></rect>
                                                            </g>
                                                            <g id="Briefcase-Frame" fill="#B2BACF">
                                                                <rect id="path-1" x="0" y="0" width="38.2061483" height="26" rx="2.7023708"></rect>
                                                            </g>
                                                            <g id="Rectangle-846-Clipped">
                                                                <mask id="mask-2" fill="white">
                                                                    <use xlink:href="#path-1"></use>
                                                                </mask>
                                                                <g id="path-1"></g>
                                                                <rect id="Rectangle-846" fill="#D2D7E4" mask="url(#mask-2)" x="4.27305606" y="0" width="29.6600362" height="26"></rect>
                                                            </g>
                                                            <g id="Rectangle-845-Clipped">
                                                                <mask id="mask-4" fill="white">
                                                                    <use xlink:href="#path-3"></use>
                                                                </mask>
                                                                <g id="path-1"></g>
                                                                <rect id="Rectangle-845" fill="#42568C" mask="url(#mask-4)" x="6.03254973" y="0" width="26.1410488" height="26"></rect>
                                                            </g>
                                                            <g id="Lists-Clipped">
                                                                <mask id="mask-6" fill="white">
                                                                    <use xlink:href="#path-5"></use>
                                                                </mask>
                                                                <g id="path-1"></g>
                                                                <g id="Lists" mask="url(#mask-6)">
                                                                    <g transform="translate(9.300181, 3.250000)" id="Group">
                                                                        <g>
                                                                            <rect id="Left-List" fill="#FFFFFF" x="0" y="0" width="8.29475588" height="18" rx="1.25"></rect>
                                                                            <rect id="Right-List" fill="#FFFFFF" x="11.3110307" y="0" width="8.29475588" height="10.75" rx="1.25"></rect>
                                                                        </g>
                                                                    </g>
                                                                </g>
                                                            </g>
                                                        </g>
                                                    </g>
                                                </g>
                                            </g>
                                        </g>
                                    </g>
                                </g>
                            </g>
                        </g>
                    </g>
                </g>
            </g>
        </g>
    </g>
</svg>