<?xml version="1.0" encoding="UTF-8"?>
<svg width="56px" height="61px" viewBox="0 0 56 61" version="1.1" xmlns="http://www.w3.org/2000/svg" xmlns:xlink="http://www.w3.org/1999/xlink">
    <!-- Generator: Sketch 44.1 (41455) - http://www.bohemiancoding.com/sketch -->
    <title>Shape</title>
    <desc>Created with Sketch.</desc>
    <defs></defs>
    <g id="Page-1" stroke="none" stroke-width="1" fill="none" fill-rule="evenodd">
        <g id="Team-Member-Ad" transform="translate(-240.000000, -572.000000)" fill-rule="nonzero" fill="#999999">
            <g id="Group" transform="translate(128.000000, 536.000000)">
                <path d="M116.247299,62.8319041 L163.237274,62.8319041 C165.573159,62.8319041 167.484573,64.7487582 167.484573,67.0916621 L167.484573,92.381243 C167.484573,94.723406 165.573159,96.64026 163.237274,96.64026 L116.247299,96.64026 C113.911414,96.64026 112,94.723406 112,92.381243 L112,67.0912916 C112,64.7483877 113.911045,62.8319041 116.247299,62.8319041 L116.247299,62.8319041 Z M144.57051,76.3465773 C144.57051,70.5730455 134.913325,70.6630717 134.913325,76.3465773 C134.913325,78.3293765 135.730497,79.1896268 136.979898,79.9935644 C136.734229,81.2746779 136.932981,84.5445182 136.932981,86.0316176 C136.932981,89.4674322 142.112713,89.4663207 142.112713,86.0316176 C142.112713,84.3133399 142.263439,81.8555877 142.100153,80.2273361 C143.574535,79.4660035 144.57051,78.4075474 144.57051,76.3465773 L144.57051,76.3465773 Z M149.838535,59.8917893 C149.838166,40.6676771 129.645299,40.7932692 129.645669,60.227813 C126.280561,60.227813 122.915083,60.227813 119.549975,60.227813 C119.549975,28.0391877 159.934229,27.9217461 159.934229,59.8917893 C156.56949,59.8917893 159.934229,59.8917893 149.838535,59.8917893 Z" id="Shape"></path>
            </g>
        </g>
    </g>
</svg>